<svg xmlns="http://www.w3.org/2000/svg" viewBox="0 0 1000 1000" native-dark-active=""><link xmlns="" type="text/css" rel="stylesheet" id="dark-mode-custom-link"/><link xmlns="" type="text/css" rel="stylesheet" id="dark-mode-general-link"/><style xmlns="" lang="en" type="text/css" id="dark-mode-custom-style"/><style xmlns="" lang="en" type="text/css" id="dark-mode-native-style">:root, ::after, ::before, ::backdrop {
  --native-dark-opacity: 0.85;
  --native-dark-bg-color: #292929;
  --native-dark-text-shadow: none;
  --native-dark-font-color: #dcdcdc;
  --native-dark-link-color: #8db2e5;
  --native-dark-cite-color: #92de92;
  --native-dark-fill-color: #7d7d7d;
  --native-dark-border-color: #555555;
  --native-dark-visited-link-color: #c76ed7;
  --native-dark-transparent-color: transparent;
  --native-dark-bg-image-color: rgba(0, 0, 0, 0.25);
  --native-dark-box-shadow: 0 0 0 1px rgb(255 255 255 / 10%);
  --native-dark-bg-image-filter: brightness(50%) contrast(200%)
}

:root {
  color-scheme: dark;
}

html a:visited, 
html a:visited &gt; * {
  color: var(--native-dark-visited-link-color) !important;
}

a[ping]:link,
a[ping]:link &gt; *,
:link:not(cite) {
  color: var(--native-dark-link-color) !important;
}

html cite,
html cite a:link,
html cite a:visited {
  color: var(--native-dark-cite-color) !important;
}

img,
image,
figure:empty {
  opacity: var(--native-dark-opacity) !important;
}
        </style><style xmlns="" lang="en" type="text/css" id="dark-mode-native-sheet"/>
  <defs/>
  <path xmlns="http://www.w3.org/2000/svg" fill="#2a2a2a" d="M8,195.25 C178.83,110.03 349.03,140.83 521.26,167.28 C676.47,191.12 833.42,211.85 992,132.75 L992,804.75 C821.17,889.97 650.97,859.17 478.74,832.72 C323.53,808.88 166.58,788.15 8,867.25 L8,195.25"/>
  <path xmlns="http://www.w3.org/2000/svg" fill="#a2a2a2" d="M8,291.25 C178.83,206.03 349.03,236.83 521.26,263.28 C676.47,287.12 833.42,307.85 992,228.75 L992,708.75 C821.17,793.97 650.97,763.17 478.74,736.72 C323.53,712.88 166.58,692.15 8,771.25 L8,291.25"/>
  <path xmlns="http://www.w3.org/2000/svg" fill="#dedede" d="M8,387.25 C178.83,302.03 349.03,332.83 521.26,359.28 C676.47,383.12 833.42,403.85 992,324.75 L992,612.75 C821.17,697.97 650.97,667.17 478.74,640.72 C323.53,616.88 166.58,596.15 8,675.25 L8,387.25"/>
  <path xmlns="http://www.w3.org/2000/svg" fill="#a1d474" d="M8,483.25 C178.83,398.03 349.03,428.83 521.26,455.28 C676.47,479.12 833.42,499.85 992,420.75 L992,516.75 C821.17,601.97 650.97,571.17 478.74,544.72 C323.53,520.88 166.58,500.15 8,579.25 L8,483.25"/>
  
  <path fill="#000"/>
  <path fill="#fff"/>
  <path fill="#d40000"/>
  
  
  
  
  
  <path fill="#1A1A1A" opacity="0.2" d="M8,195.25 C178.83,110.03 349.03,140.83 521.26,167.28 C676.47,191.12 833.42,211.85 992,132.75 L992,804.75 C821.17,889.97 650.97,859.17 478.74,832.72 C323.53,808.88 166.58,788.15 8,867.25 L8,195.25 M39.25,214.64 L39.25,819.14 C345.81,690.88 650.43,915.18 960.75,785.36 L960.75,180.86 C654.19,309.12 349.57,84.82 39.25,214.64"/>
</svg>