<svg xmlns="http://www.w3.org/2000/svg" viewBox="0 0 1000 1000" native-dark-active=""><link xmlns="" type="text/css" rel="stylesheet" id="dark-mode-custom-link"/><link xmlns="" type="text/css" rel="stylesheet" id="dark-mode-general-link"/><style xmlns="" lang="en" type="text/css" id="dark-mode-custom-style"/><style xmlns="" lang="en" type="text/css" id="dark-mode-native-style">:root, ::after, ::before, ::backdrop {
  --native-dark-opacity: 0.85;
  --native-dark-bg-color: #292929;
  --native-dark-text-shadow: none;
  --native-dark-font-color: #dcdcdc;
  --native-dark-link-color: #8db2e5;
  --native-dark-cite-color: #92de92;
  --native-dark-fill-color: #7d7d7d;
  --native-dark-border-color: #555555;
  --native-dark-visited-link-color: #c76ed7;
  --native-dark-transparent-color: transparent;
  --native-dark-bg-image-color: rgba(0, 0, 0, 0.25);
  --native-dark-box-shadow: 0 0 0 1px rgb(255 255 255 / 10%);
  --native-dark-bg-image-filter: brightness(50%) contrast(200%)
}

:root {
  color-scheme: dark;
}

html a:visited, 
html a:visited &gt; * {
  color: var(--native-dark-visited-link-color) !important;
}

a[ping]:link,
a[ping]:link &gt; *,
:link:not(cite) {
  color: var(--native-dark-link-color) !important;
}

html cite,
html cite a:link,
html cite a:visited {
  color: var(--native-dark-cite-color) !important;
}

img,
image,
figure:empty {
  opacity: var(--native-dark-opacity) !important;
}
        </style><style xmlns="" lang="en" type="text/css" id="dark-mode-native-sheet"/>
  <defs/>
  <path xmlns="http://www.w3.org/2000/svg" fill="#2a2a2a" d="M8,195.25 C178.83,110.03 349.03,140.83 521.26,167.28 C676.47,191.12 833.42,211.85 992,132.75 L992,804.75 C821.17,889.97 650.97,859.17 478.74,832.72 C323.53,808.88 166.58,788.15 8,867.25 L8,195.25"/>
  <path xmlns="http://www.w3.org/2000/svg" fill="#8a50b7" d="M8,195.25 C178.83,110.03 349.03,140.83 521.26,167.28 C676.47,191.12 833.42,211.85 992,132.75 L992,636.75 C821.17,721.97 650.97,691.17 478.74,664.72 C323.53,640.88 166.58,620.15 8,699.25 L8,195.25"/>
  <path fill="#FFFFFF" d="M8,195.25 C178.83,110.03 349.03,140.83 521.26,167.28 C676.47,191.12 833.42,211.85 992,132.75 L992,468.75 C821.17,553.97 650.97,523.17 478.74,496.72 C323.53,472.88 166.58,452.15 8,531.25 L8,195.25"/>
  <path xmlns="http://www.w3.org/2000/svg" fill="#dbd431" d="M8,195.25 C178.83,110.03 349.03,140.83 521.26,167.28 C676.47,191.12 833.42,211.85 992,132.75 L992,300.75 C821.17,385.97 650.97,355.17 478.74,328.72 C323.53,304.88 166.58,284.15 8,363.25 L8,195.25"/>
  
  
  <path fill="#1A1A1A" opacity="0.2" d="M8,195.25 C178.83,110.03 349.03,140.83 521.26,167.28 C676.47,191.12 833.42,211.85 992,132.75 L992,804.75 C821.17,889.97 650.97,859.17 478.74,832.72 C323.53,808.88 166.58,788.15 8,867.25 L8,195.25 M39.25,214.64 L39.25,819.14 C345.81,690.88 650.43,915.18 960.75,785.36 L960.75,180.86 C654.19,309.12 349.57,84.82 39.25,214.64"/>
</svg>